<?xml version="1.0" standalone="no"?>
<svg xmlns:xlink="http://www.w3.org/1999/xlink" id="wave" style="transform:rotate(180deg); transition: 0.3s" viewBox="0 0 1440 100" version="1.1" xmlns="http://www.w3.org/2000/svg"><defs><linearGradient id="sw-gradient-0" x1="0" x2="0" y1="1" y2="0"><stop stop-color="rgba(255, 249, 234, 1)" offset="0%"/><stop stop-color="rgba(255, 249, 234, 1)" offset="100%"/></linearGradient></defs><path style="transform:translate(0, 0px); opacity:1" fill="url(#sw-gradient-0)" d="M0,0L48,3.3C96,7,192,13,288,15C384,17,480,13,576,20C672,27,768,43,864,43.3C960,43,1056,27,1152,21.7C1248,17,1344,23,1440,35C1536,47,1632,63,1728,70C1824,77,1920,73,2016,63.3C2112,53,2208,37,2304,40C2400,43,2496,67,2592,68.3C2688,70,2784,50,2880,48.3C2976,47,3072,63,3168,71.7C3264,80,3360,80,3456,73.3C3552,67,3648,53,3744,46.7C3840,40,3936,40,4032,46.7C4128,53,4224,67,4320,61.7C4416,57,4512,33,4608,23.3C4704,13,4800,17,4896,15C4992,13,5088,7,5184,18.3C5280,30,5376,60,5472,60C5568,60,5664,30,5760,16.7C5856,3,5952,7,6048,18.3C6144,30,6240,50,6336,61.7C6432,73,6528,77,6624,68.3C6720,60,6816,40,6864,30L6912,20L6912,100L6864,100C6816,100,6720,100,6624,100C6528,100,6432,100,6336,100C6240,100,6144,100,6048,100C5952,100,5856,100,5760,100C5664,100,5568,100,5472,100C5376,100,5280,100,5184,100C5088,100,4992,100,4896,100C4800,100,4704,100,4608,100C4512,100,4416,100,4320,100C4224,100,4128,100,4032,100C3936,100,3840,100,3744,100C3648,100,3552,100,3456,100C3360,100,3264,100,3168,100C3072,100,2976,100,2880,100C2784,100,2688,100,2592,100C2496,100,2400,100,2304,100C2208,100,2112,100,2016,100C1920,100,1824,100,1728,100C1632,100,1536,100,1440,100C1344,100,1248,100,1152,100C1056,100,960,100,864,100C768,100,672,100,576,100C480,100,384,100,288,100C192,100,96,100,48,100L0,100Z"/></svg>